<svg width="1024" height="1024" viewBox="0 0 1024 1024" fill="none" xmlns="http://www.w3.org/2000/svg">
  <!-- Background -->
  <rect width="1024" height="1024" fill="#F5F5F5"/>
  
  <!-- Joyous Logo -->
  <g transform="translate(172, 388)">
    <!-- j -->
    <path d="M0 0 L0 -48 L48 -48 L48 0 L48 120 Q48 168 24 192 Q0 216 -48 216 Q-96 216 -120 192 Q-144 168 -144 120 L-144 72 L-96 72 L-96 120 Q-96 144 -84 156 Q-72 168 -48 168 Q-24 168 -12 156 Q0 144 0 120 Z" fill="#1DA1F2"/>
    
    <!-- o -->
    <path d="M96 120 Q96 168 120 192 Q144 216 192 216 Q240 216 264 192 Q288 168 288 120 L288 72 Q288 24 264 0 Q240 -24 192 -24 Q144 -24 120 0 Q96 24 96 72 Z M144 72 Q144 48 156 36 Q168 24 192 24 Q216 24 228 36 Q240 48 240 72 L240 120 Q240 144 228 156 Q216 168 192 168 Q168 168 156 156 Q144 144 144 120 Z" fill="#1DA1F2"/>
    
    <!-- y -->
    <path d="M336 -24 L384 -24 L480 144 L576 -24 L624 -24 L504 192 L456 192 Z" fill="#F1C40F"/>
    
    <!-- o -->
    <path d="M672 120 Q672 168 696 192 Q720 216 768 216 Q816 216 840 192 Q864 168 864 120 L864 72 Q864 24 840 0 Q816 -24 768 -24 Q720 -24 696 0 Q672 24 672 72 Z M720 72 Q720 48 732 36 Q744 24 768 24 Q792 24 804 36 Q816 48 816 72 L816 120 Q816 144 804 156 Q792 168 768 168 Q744 168 732 156 Q720 144 720 120 Z" fill="#F1C40F"/>
    
    <!-- u -->
    <path d="M912 -24 L960 -24 L960 120 Q960 168 984 192 Q1008 216 1056 216 Q1104 216 1128 192 Q1152 168 1152 120 L1152 -24 L1200 -24 L1200 120 Q1200 192 1164 228 Q1128 264 1056 264 Q984 264 948 228 Q912 192 912 120 Z" fill="#F1C40F"/>
    
    <!-- s -->
    <path d="M1248 216 L1248 168 Q1296 192 1344 192 Q1368 192 1380 180 Q1392 168 1392 144 Q1392 120 1380 108 Q1368 96 1344 96 L1320 96 Q1272 96 1248 72 Q1224 48 1224 0 Q1224 -48 1248 -72 Q1272 -96 1320 -96 Q1368 -96 1416 -72 L1416 -24 Q1368 -48 1320 -48 Q1296 -48 1284 -36 Q1272 -24 1272 0 Q1272 24 1284 36 Q1296 48 1320 48 L1344 48 Q1392 48 1416 72 Q1440 96 1440 144 Q1440 192 1416 216 Q1392 240 1344 240 Q1296 240 1248 216 Z" fill="#1DA1F2"/>
  </g>
</svg>
